<svg width="41" height="36" viewBox="0 0 41 36" fill="none" xmlns="http://www.w3.org/2000/svg">
<path d="M7.08194 8.14453C6.29131 9.71065 7.09896 12.9431 8.09386 14.4998L21.7899 36H11.7841C10.2047 36 8.65752 35.0977 7.98228 34.0555L0.512908 22.3285C-0.18882 21.2334 -0.152883 19.4914 0.512908 18.4416L7.08194 8.14453Z" fill="url(#paint0_radial_223_1851)"/>
<path d="M12.866 18.7367C12.5029 19.3042 12.1681 20.6622 12.7223 21.7631L8.09578 14.5018C7.10088 12.9451 6.29323 9.71262 7.08386 8.14649L7.90853 6.85652C8.64998 5.68004 10.0326 4.91211 11.7765 4.91211H21.6121L12.866 18.7367Z" fill="url(#paint1_radial_223_1851)"/>
<path d="M33.1952 27.8554C33.984 26.2874 33.1801 23.0549 32.1852 21.5001L18.4873 0H28.495C30.0743 0 31.6215 0.900332 32.2968 1.94252L39.7661 13.6695C40.4679 14.7647 40.4319 16.5067 39.7661 17.5584L33.1952 27.8554Z" fill="url(#paint2_radial_223_1851)"/>
<path d="M27.415 17.2617C27.7801 16.6942 28.1111 15.3381 27.5588 14.2354L32.1853 21.4985C33.1802 23.0533 33.984 26.2858 33.1953 27.8538L32.3744 29.1419C31.6311 30.3203 30.2484 31.0882 28.5045 31.0882H18.6689L27.415 17.2617Z" fill="url(#paint3_radial_223_1851)"/>
<defs>
<radialGradient id="paint0_radial_223_1851" cx="0" cy="0" r="1" gradientUnits="userSpaceOnUse" gradientTransform="translate(0.31877 15.6569) rotate(-90) scale(26.569 29.0995)">
<stop stop-color="#D3E6F6"/>
<stop offset="0.07" stop-color="#CBE2F5"/>
<stop offset="0.17" stop-color="#B5D6F1"/>
<stop offset="0.25" stop-color="#A1CBED"/>
<stop offset="0.34" stop-color="#8FBCE4"/>
<stop offset="0.53" stop-color="#5F95CB"/>
<stop offset="0.7" stop-color="#2F6EB3"/>
<stop offset="0.82" stop-color="#205CA2"/>
<stop offset="1" stop-color="#00367F"/>
</radialGradient>
<radialGradient id="paint1_radial_223_1851" cx="0" cy="0" r="1" gradientUnits="userSpaceOnUse" gradientTransform="translate(22.9553 4.87116) scale(18.6828 18.6828)">
<stop stop-color="#D3E6F6"/>
<stop offset="0.07" stop-color="#CBE2F5"/>
<stop offset="0.17" stop-color="#B5D6F1"/>
<stop offset="0.25" stop-color="#A1CBED"/>
<stop offset="0.34" stop-color="#8FBCE4"/>
<stop offset="0.53" stop-color="#5F95CB"/>
<stop offset="0.7" stop-color="#2F6EB3"/>
<stop offset="0.82" stop-color="#205CA2"/>
<stop offset="1" stop-color="#00367F"/>
</radialGradient>
<radialGradient id="paint2_radial_223_1851" cx="0" cy="0" r="1" gradientUnits="userSpaceOnUse" gradientTransform="translate(39.9594 20.1948) rotate(90) scale(26.5674 29.0977)">
<stop stop-color="#D3E6F6"/>
<stop offset="0.07" stop-color="#CBE2F5"/>
<stop offset="0.17" stop-color="#B5D6F1"/>
<stop offset="0.25" stop-color="#A1CBED"/>
<stop offset="0.34" stop-color="#8FBCE4"/>
<stop offset="0.53" stop-color="#5F95CB"/>
<stop offset="0.7" stop-color="#2F6EB3"/>
<stop offset="0.82" stop-color="#205CA2"/>
<stop offset="1" stop-color="#00367F"/>
</radialGradient>
<radialGradient id="paint3_radial_223_1851" cx="0" cy="0" r="1" gradientUnits="userSpaceOnUse" gradientTransform="translate(18.2497 31.0942) rotate(180) scale(18.6862 18.6862)">
<stop stop-color="#D3E6F6"/>
<stop offset="0.07" stop-color="#CBE2F5"/>
<stop offset="0.17" stop-color="#B5D6F1"/>
<stop offset="0.25" stop-color="#A1CBED"/>
<stop offset="0.34" stop-color="#8FBCE4"/>
<stop offset="0.53" stop-color="#5F95CB"/>
<stop offset="0.7" stop-color="#2F6EB3"/>
<stop offset="0.82" stop-color="#205CA2"/>
<stop offset="1" stop-color="#00367F"/>
</radialGradient>
</defs>
</svg>
